<svg width="280" height="337" viewBox="0 0 280 337" fill="none" xmlns="http://www.w3.org/2000/svg">
<path d="M179.093 106.412C179.093 84.8463 161.556 67.3017 140 67.3017C118.444 67.3017 100.907 84.8463 100.907 106.412V178.644C90.5392 188.804 84.0898 202.95 84.0898 218.582C84.0898 249.425 109.171 274.517 140 274.517C170.829 274.517 195.91 249.425 195.91 218.582C195.91 202.95 189.461 188.804 179.093 178.644V106.412ZM111.821 106.412C111.821 90.8655 124.463 78.2186 140.001 78.2186C155.539 78.2186 168.182 90.8655 168.182 106.412V170.301C159.901 165.445 150.274 162.646 140.001 162.646C129.728 162.646 120.102 165.444 111.821 170.301V106.412ZM184.998 218.581C184.998 243.404 164.813 263.599 140 263.599C115.189 263.599 95.0018 243.405 95.0018 218.581C95.0018 193.757 115.187 173.563 140 173.563C164.813 173.563 184.998 193.757 184.998 218.581Z" fill="#24D07E"/>
<path d="M145.457 201.756H134.545V229.799H145.457V201.756Z" fill="#24D07E"/>
<path d="M0 0V260.66L139.781 337L280 260.665V0H0ZM269.089 255.016L139.781 312.661L10.9121 255.021V10.9169H269.089V255.016Z" fill="#24D07E"/>
<path d="M257.728 22.434H22.2738V33.3509H257.728V22.434Z" fill="#24D07E"/>
</svg>
